PathFileType	4	(X/Y/Z)	RBDS023\RBDS023runT35.trc
DataRate	CameraRate	NumFrames	NumMarkers	Units	OrigDataRate	OrigDataStartFrame	OrigNumFrames
150.000000	150.000000	4	33	mm	150.000000	2250	4500
Frame#	Time	L.ASIS			L.Heel.Bottom			L.Heel.Lateral			L.Heel.Top			L.Iliac.Crest			L.MT1			L.MT5			L.PSIS			L.Shank.Bottom.Lateral			L.Shank.Bottom.Medial			L.Shank.Top.Lateral			L.Shank.Top.Medial			L.Thigh.Bottom.Lateral			L.Thigh.Bottom.Medial			L.Thigh.Top.Lateral			L.Thigh.Top.Medial			R.ASIS			R.ASY			R.Heel.Bottom			R.Heel.Lateral			R.Heel.Top			R.Iliac.Crest			R.MT1			R.MT5			R.PSIS			R.Shank.Bottom.Lateral			R.Shank.Bottom.Medial			R.Shank.Top.Lateral			R.Shank.Top.Medial			R.Thigh.Bottom.Lateral			R.Thigh.Bottom.Medial			R.Thigh.Top.Lateral			R.Thigh.Top.Medial			
		X1	Y1	Z1	X2	Y2	Z2	X3	Y3	Z3	X4	Y4	Z4	X5	Y5	Z5	X6	Y6	Z6	X7	Y7	Z7	X8	Y8	Z8	X9	Y9	Z9	X10	Y10	Z10	X11	Y11	Z11	X12	Y12	Z12	X13	Y13	Z13	X14	Y14	Z14	X15	Y15	Z15	X16	Y16	Z16	X17	Y17	Z17	X18	Y18	Z18	X19	Y19	Z19	X20	Y20	Z20	X21	Y21	Z21	X22	Y22	Z22	X23	Y23	Z23	X24	Y24	Z24	X25	Y25	Z25	X26	Y26	Z26	X27	Y27	Z27	X28	Y28	Z28	X29	Y29	Z29	X30	Y30	Z30	X31	Y31	Z31	X32	Y32	Z32	X33	Y33	Z33	

2251	15	2371.17767344805	967.9895463291696	900.5855016610845	2188.628165531911	32.67569559808576	994.7212549895038	2214.376464025993	54.50873134099498	954.9506693442137	2202.411272011173	77.97151265494242	999.8802714856554	2289.230096784463	1026.076321284761	855.889929863343	2417.915838451609	34.09743085191091	1019.683761881721	2374.001087668409	36.45483977091291	904.6851666115926	2193.18790693678	1005.285135497788	966.2603353087372	2306.527547222819	146.8357590698842	929.208579576985	2264.68812456861	165.0226588793382	952.1925245243193	2325.943440675513	220.6280799454583	900.9225155439912	2286.213949869393	243.3222927463692	928.3547646294078	2386.789042272262	630.1814703836076	837.1714272020834	2331.863538037146	607.9348722194959	875.7996937407008	2338.002949050273	728.8676480428438	828.1135051016843	2285.575099469613	708.0037893155567	865.6875386818294	2378.329888284502	951.0505096245378	1115.724784729309	1915.275760454085	381.6654177363947	1087.482313209819	1901.276316553639	580.5831893530576	1067.124898932143	1919.155413346616	551.5161394678591	1112.095922098615	1944.204965636182	559.657990602184	1063.087955977051	2315.962505751566	1034.741075630021	1166.351894858841	1854.658645712522	360.0463689419791	1051.349169112784	1873.920040160515	395.4880844464031	1158.097913659392	2200.377837688256	1004.428887544326	1073.347137706226	2028.502701267597	484.4214598546729	1123.275889772628	2030.739940072437	531.2703849893834	1093.393249070781	2109.194386630384	489.60831644857	1134.624114840537	2110.11631215031	534.1000900466693	1104.233160999874	2340.982865426497	559.1738282669291	1147.108905766335	2286.980970325126	549.8201865473154	1098.673391324026	2304.565238805135	661.1479524898529	1164.034979293484	2254.189307400717	652.610087306893	1117.502258549981	
2252	15.00666666666667	2369.226535779127	966.1272199784451	899.6600945091036	2165.225242577161	32.92072790440744	994.5837891594249	2190.883822653902	54.64677960676235	954.6326722531833	2178.85795248321	78.24189486719526	999.4838410298122	2286.1451686683	1023.487241311348	856.0413275964407	2394.245817332199	34.47706402129118	1019.301033619403	2350.371578259005	36.67494708011713	904.4364881436464	2191.362359241058	1004.550913548592	966.7203739623034	2284.808809324545	146.4910587932794	928.5797063919955	2243.515931761039	165.8752488333632	951.544509328	2306.322761094494	219.6634522478161	900.2050152900305	2267.254970718919	243.4712945807361	927.612186023838	2377.678313717099	626.825557126703	836.4468507775867	2322.398430846447	605.9841891961623	875.3941913809057	2331.330134622867	726.6654419321709	827.7135746736074	2278.683137398855	707.1635021355268	865.7013853298038	2376.54167936172	949.7206175796125	1115.817020901482	1933.929378293357	375.5169821607436	1087.378858256382	1913.297776797271	573.9976671417597	1068.338536791931	1932.637815432695	545.3120320648981	1112.835912690574	1956.809109978451	554.5166783600838	1063.570780792084	2311.876304785038	1033.274627407943	1166.253901885692	1873.514061579008	352.1509556372511	1051.890689811234	1893.049735195241	387.7142801975317	1158.599292654056	2198.740857702217	1003.599002021821	1073.261580291645	2043.717182019112	480.2539430761687	1123.293678077539	2045.148546128628	527.3945214988454	1093.893368380096	2124.25513707677	486.7024374666272	1134.725076836249	2124.446949705224	531.4779952411104	1104.757909460868	2353.484287149503	560.5711148978967	1148.159895757364	2299.1089578657	548.4957243832719	1100.889559267998	2313.101679652881	661.0121667194979	1165.054328710494	2262.147903177466	649.8487695030351	1119.786022457031	
2253	15.01333333333333	2367.534575275175	965.0307619815662	898.8890795071011	2141.653670833091	33.24636059393785	994.4185305237545	2167.257862764634	54.79411521505146	954.2643969106682	2155.193574329081	78.60077430501785	999.00052573655	2283.420771759932	1022.151804749224	856.139242656127	2370.494772652652	34.67483675530161	1018.896862705596	2326.649740701969	36.67920581497204	904.20330692472	2189.830655272534	1004.518231688986	967.0287756375051	2262.693378265923	146.2668132500174	927.8989417036875	2221.947223720632	166.6847384665041	950.9123109645012	2286.044116492276	218.8353808781603	899.4968071316021	2247.627332646613	243.6127345406052	926.9119360688433	2367.949804982203	623.9383271290436	835.7812333685946	2312.15679031216	604.6219383999361	874.8442405157363	2324.384622521015	725.0100717728983	827.4011982719511	2271.388245917378	706.9991571665664	865.6620235096935	2374.976524667331	949.4678624972122	1116.01081401213	1953.031325499272	368.1095221977213	1086.92968919761	1924.660476509542	565.7752315861359	1069.413780134736	1945.502020221853	537.5996389041701	1113.385532096567	1968.795131951854	548.0284580257393	1063.929858932783	2307.965916529328	1032.924700690475	1165.992801713742	1893.124894791089	342.6997041255311	1051.867851714375	1912.424075665006	378.3813744701265	1158.626370681102	2197.304705286069	1003.501155100738	1073.115675349884	2058.683158820354	475.3211667333669	1123.134738752128	2058.98605587422	522.7699707127435	1094.280472995111	2138.977144938818	483.5570147664228	1134.7051384456	2138.136180639895	528.6436155419934	1105.248447009292	2365.981476914083	563.3140199877176	1149.153758551273	2311.428714047068	548.5323210996589	1102.936346256517	2321.696476209883	662.0637949908773	1166.037930653018	2270.326381756445	648.2676928972132	1121.989901838622	
2254	15.02	2366.124955386374	964.6701152040032	898.3275036209151	2117.936600681853	33.7761214597411	994.224482168997	2143.532988581094	55.06528621601765	953.8520589493417	2131.469761392533	79.16241903717568	998.4353444130236	2281.22455753577	1022.020860585457	856.1579762143506	2346.682776607219	34.70452639298561	1018.508509956167	2302.846047377951	36.52488799284879	904.0105061427621	2188.617633310887	1005.145598609369	967.1760381989849	2240.286134790678	146.2701112837391	927.199000069867	2200.071553161376	167.5718587514334	950.3151840310353	2265.243246869486	218.2626076622973	898.8258193859999	2227.447281398985	243.8813115878218	926.2656933242384	2357.708442788555	621.607905396506	835.1787388205537	2301.280840861029	603.920356170067	874.1788647819883	2317.229001017368	723.9461269017903	827.168937618145	2263.780696918435	707.5378310040572	865.5765699093899	2373.683110868442	950.2668058128818	1116.273310573182	1972.563928971139	359.5630957415003	1086.135006287246	1935.441140460282	555.9011971786281	1070.294689967417	1957.803748639601	528.3820995930313	1113.723014144513	1980.211695958609	540.1766082702842	1064.149463171262	2304.417885371101	1033.629270771809	1165.603125464586	1913.511307047339	331.8493995641447	1051.268883149432	1932.055237137898	367.6092648072157	1158.163896878691	2196.097108457398	1004.116519091486	1072.920203750686	2073.385332125696	469.6556415495984	1122.796787364916	2072.249881252571	517.4034447112008	1094.542200657804	2153.320374564989	480.1812827114389	1134.563223025157	2151.151535925923	525.5760269913798	1105.687594851549	2378.302240367849	567.3373581417804	1150.063993552341	2323.766048239681	549.9330993606194	1104.746812889568	2330.227831613238	664.26294664925	1166.973796106791	2278.624942355672	647.8909197480496	1124.047501348202	
